# xmcd
#
# Track frame offsets: 
#        150
#        15829
#        24668
#        39421
#        54997
#        71144
#        86030
#        103640
#        117387
#        132604
#        152816
#        169517
#        183858
#
# Disc length: 2945 seconds
#
# Revision: 1
# Processed by: cddbd v1.5.1PL2 Copyright (c) Steve Scherf et al.
# Submitted via: ExactAudioCopy v0.95a5
#
DISCID=a40b7f0d
DTITLE=The Mendoza Line - Fortune
DYEAR=2004
DGENRE=Indie
TTITLE0=Fellow Travelers
TTITLE1=Faithful Brother (scourge of the land)
TTITLE2=Before I Hit the Wall
TTITLE3=It's a Long Line (but it moves quickly)
TTITLE4=Let's Not Talk About It
TTITLE5=An Architect's Eye
TTITLE6=Metro Pictures
TTITLE7=They Never Bat an Eye
TTITLE8=Tiny Motions
TTITLE9=Flat Feet and Western Style
TTITLE10=Road to Insolvency
TTITLE11=Will You Be Here Tomorrow?
TTITLE12=Throw It in the Fire
EXTD=
EXTT0=
EXTT1=
EXTT2=
EXTT3=
EXTT4=
EXTT5=
EXTT6=
EXTT7=
EXTT8=
EXTT9=
EXTT10=
EXTT11=
EXTT12=
PLAYORDER=
